HIERARCHY
ROOT root     
{
	OFFSET 0.0000 0.0000 0.0000
	CHANNELS 6 Xposition Yposition Zposition Zrotation Yrotation Xrotation
	JOINT pelvis   
	{
		OFFSET 0.0000 0.0000 0.0000
		CHANNELS 3 Zrotation Yrotation Xrotation
		JOINT thorax   
		{
			OFFSET 0.0000 23.0750 -5.0000
			CHANNELS 3 Zrotation Yrotation Xrotation
			JOINT rclavicle
			{
				OFFSET 0.0000 28.0009 0.0000
				CHANNELS 3 Zrotation Yrotation Xrotation
				JOINT rhumerus 
				{
					OFFSET -18.5725 5.5939 0.0000
					CHANNELS 3 Zrotation Yrotation Xrotation
					JOINT rradius  
					{
						OFFSET -24.8459 0.0000 0.0000
						CHANNELS 3 Zrotation Yrotation Xrotation
						JOINT rhand    
						{
							OFFSET -24.5477 0.0000 0.0000
							CHANNELS 3 Zrotation Yrotation Xrotation
							End Site
							{
								OFFSET -8.1826 0.0000 0.0000
							}
						}
					}
				}
			}
			JOINT lclavicle
			{
				OFFSET 0.0000 28.0009 0.0000
				CHANNELS 3 Zrotation Yrotation Xrotation
				JOINT lhumerus 
				{
					OFFSET 18.5725 5.5939 0.0000
					CHANNELS 3 Zrotation Yrotation Xrotation
					JOINT lradius  
					{
						OFFSET 24.8459 0.0000 0.0000
						CHANNELS 3 Zrotation Yrotation Xrotation
						JOINT lhand    
						{
							OFFSET 24.5477 0.0000 0.0000
							CHANNELS 3 Zrotation Yrotation Xrotation
							End Site
							{
								OFFSET 8.1826 0.0000 0.0000
							}
						}
					}
				}
			}
			JOINT head     
			{
				OFFSET 0.0000 35.2030 0.0000
				CHANNELS 3 Zrotation Yrotation Xrotation
				End Site
				{
					OFFSET 0.0000 11.7343 0.0000
				}
			}
		}
		JOINT rfemur   
		{
			OFFSET -8.2817 0.0000 0.0000
			CHANNELS 3 Zrotation Yrotation Xrotation
			JOINT rtibia   
			{
				OFFSET 0.0000 -43.3627 0.0000
				CHANNELS 3 Zrotation Yrotation Xrotation
				JOINT rfoot    
				{
					OFFSET 0.0000 -38.2947 0.0000
					CHANNELS 3 Zrotation Yrotation Xrotation
					JOINT rtoes    
					{
						OFFSET 0.0000 0.0000 16.6054
						CHANNELS 3 Zrotation Yrotation Xrotation
						End Site
						{
							OFFSET 0.0000 0.0000 5.5351
						}
					}
				}
			}
		}
		JOINT lfemur   
		{
			OFFSET 8.2817 0.0000 0.0000
			CHANNELS 3 Zrotation Yrotation Xrotation
			JOINT ltibia   
			{
				OFFSET 0.0000 -43.3627 0.0000
				CHANNELS 3 Zrotation Yrotation Xrotation
				JOINT lfoot    
				{
					OFFSET 0.0000 -38.2947 0.0000
					CHANNELS 3 Zrotation Yrotation Xrotation
					JOINT ltoes    
					{
						OFFSET 0.0000 0.0000 16.6054
						CHANNELS 3 Zrotation Yrotation Xrotation
						End Site
						{
							OFFSET 0.0000 0.0000 5.5351
						}
					}
				}
			}
		}
	}
}
MOTION
Frames: 9
Frame Time: .0333333
72.462 88.514 16.661 17.3499 -86.452 2.42934 0 -0 0 3.84867 -14.772 -8.37796 26.7652 -11.8697 -5.50786e-05 53.717 -3.83512 -18.122 -5.57946e-07 58.2325 -1.00178e-06 0.655503 6.42956 0.0368 -23.4463 12.2215 0.000111209 -40.6421 -4.65779 3.79758 3.50576e-05 -89.665 -3.53019e-05 8.24345 -1.19841 -0.0863998 -1.4009 2.84231 -5.16702 -3.9258 -6.56509 -33.7026 -0 -0 20.7479 1.50521e-05 -4.43914 13.1075 -1.0087 5.66724e-06 -53.1563 1.53502 2.64362 -5.91524 -0 -0 16.1109 -3.60674e-07 0.186202 15.9027 0.0510003 -6.06224e-07 -73.6653 
71.331 88.335 16.495 20.8512 -86.4239 -1.1718 0 -0 0 3.94772 -15.0916 -8.44844 26.6504 -11.913 7.88613e-05 53.8346 -4.01634 -19.5748 -0 58.41 -0 0.294102 6.27576 0.0161002 -23.2625 12.2704 -4.58964e-05 -40.1769 -4.46948 3.25056 -180 -89.2957 180 8.39232 -1.31007 -0.0960998 -2.18184 2.78656 -5.35352 -4.18154 -6.36727 -33.573 -0 -0 18.7716 -1.46026e-06 -3.82422 13.8172 -0.91461 -9.26645e-06 -53.0166 1.50396 2.59355 -5.16463 -0 -0 16.165 -5.04759e-07 0.1113 16.5149 0.0315994 6.80605e-07 -74.5819 
70.175 88.125 16.327 24.6135 -86.342 -5.07627 0 -0 0 3.99138 -15.4098 -8.50434 26.5489 -11.9592 0.000100088 53.9008 -4.19566 -20.9369 -0 58.5968 -0 -0.112 6.13025 -0.00599996 -23.0811 12.3064 0.000106038 -39.6812 -4.27399 2.71472 180 -88.2102 180 8.55237 -1.41576 -0.105904 -2.96022 2.70471 -5.50178 -4.42347 -6.25 -33.4126 -0 -0 17.1486 5.94316e-06 -3.24519 14.4805 -0.812294 -2.74011e-06 -52.7277 1.44709 2.48364 -4.38202 -0 -0 16.2881 2.09528e-07 0.0984009 17.0764 0.0288999 -7.19704e-07 -75.4456 
68.996 87.889 16.154 28.3643 -86.2333 -9.01042 0 -0 0 3.99609 -15.7104 -8.54297 26.4627 -12.0032 0.000101505 53.9114 -4.37266 -22.2115 -5.71891e-07 58.7916 -1.01512e-06 -0.552199 6.01565 -0.0289998 -22.9171 12.3298 -9.13747e-06 -39.1507 -4.082 2.19591 180 -87.2742 -180 8.72872 -1.52403 -0.116305 -3.73958 2.59515 -5.6168 -4.65125 -6.16859 -33.2406 -0 -0 15.9628 -8.63454e-06 -2.75241 15.0175 -0.71369 -2.57396e-06 -52.3642 1.37758 2.32541 -3.56962 -0 -0 16.4717 7.45093e-07 0.152502 17.5772 0.0460007 2.86181e-07 -76.3437 
67.801 87.632 15.971 31.805 -86.1166 -12.6642 0 -0 0 3.99055 -15.9759 -8.57839 26.3929 -12.0428 0.000155472 53.8559 -4.54869 -23.39 -0 58.9823 -0 -1.02761 5.94777 -0.0534004 -22.7882 12.3399 -9.83095e-05 -38.5781 -3.90188 1.69939 -180 -86.4673 180 8.92282 -1.64095 -0.128094 -4.52649 2.45906 -5.70167 -4.86538 -6.06767 -33.0876 -0 -0 15.2766 -8.25098e-07 -2.405 15.353 -0.637096 -7.18592e-06 -52.003 1.31511 2.13627 -2.75374 -0 -0 16.7243 -1.35399e-06 0.265701 18.0063 0.0820986 -4.82201e-07 -77.3562 
66.593 87.357 15.777 34.7938 -85.9948 -15.889 0 -0 0 3.99434 -16.1888 -8.60507 26.3379 -12.0781 -0.000182844 53.7288 -4.71273 -24.4604 -0 59.1587 -0 -1.54407 5.93441 -0.0799985 -22.7043 12.3381 1.71586e-05 -37.9656 -3.74361 1.22653 180 -85.774 180 9.13411 -1.77129 -0.141497 -5.32653 2.30104 -5.76462 -5.06732 -5.90117 -32.9661 -0 -0 15.1308 -1.2428e-06 -2.24001 15.4174 -0.595794 3.8018e-06 -51.6969 1.27498 1.93206 -1.93805 -0 -0 17.0408 -1.75174e-06 0.428997 18.3699 0.135199 6.88466e-07 -78.5493 
65.378 87.07 15.568 37.3049 -85.8954 -18.6452 0 -0 0 4.02937 -16.3435 -8.63704 26.2929 -12.1054 -0.000104828 53.5296 -4.85958 -25.4154 -0 59.307 -0 -2.10644 5.97557 -0.110002 -22.6758 12.3258 5.05914e-05 -37.3198 -3.60608 0.778199 180 -85.2108 -180 9.35843 -1.91619 -0.156897 -6.14492 2.12943 -5.80758 -5.25286 -5.64375 -32.9007 -0 -0 15.5484 8.32512e-06 -2.27115 15.1594 -0.594204 -3.78851e-06 -51.451 1.27076 1.73233 -1.1494 -0 -0 17.4335 -3.65722e-06 0.618499 18.6718 0.197994 4.77045e-07 -79.947 
64.158 86.775 15.347 39.3836 -85.8159 -20.9728 0 -0 0 4.10224 -16.4386 -8.67399 26.2543 -12.1234 2.71054e-05 53.2617 -4.97875 -26.2387 -0 59.4149 -0 -2.73097 6.06567 -0.144699 -22.7 12.304 -6.03895e-05 -36.6566 -3.48165 0.352509 180 -84.7536 -180 9.58863 -2.07222 -0.1738 -6.98202 1.95475 -5.83363 -5.41387 -5.30198 -32.9026 -0 -0 16.5289 4.87015e-06 -2.4721 14.5464 -0.621303 2.54794e-06 -51.2233 1.30684 1.54676 -0.398297 -0 -0 17.908 1.4715e-07 0.8115 18.931 0.263303 6.93096e-06 -81.525 
62.922 86.472 15.115 41.2157 -85.795 -23.1064 0 -0 0 4.19881 -16.4706 -8.65503 26.2163 -12.1319 -7.68367e-05 52.9396 -5.04441 -26.9411 -0 59.4748 -0 -3.40792 6.18959 -0.184301 -22.7633 12.2782 7.01482e-05 -36.0102 -3.38241 -0.0539846 -180 -84.4374 180 9.81506 -2.23768 -0.192194 -7.83625 1.78895 -5.85753 -5.54017 -4.89377 -32.9194 -0 -0 18.0333 -1.27658e-05 -2.78036 13.5703 -0.652789 5.22411e-06 -50.9634 1.38167 1.39774 0.377503 -0 -0 18.4373 4.49512e-06 0.983302 19.1949 0.323306 -3.03874e-06 -83.2233 
